<?xml version="1.0" standalone="no"?><svg xmlns="http://www.w3.org/2000/svg" viewBox="0 0 1440 320"><path fill="#3c2944" fill-opacity="1" d="M0,256L21.8,213.3C43.6,171,87,85,131,74.7C174.5,64,218,128,262,138.7C305.5,149,349,107,393,80C436.4,53,480,43,524,48C567.3,53,611,75,655,74.7C698.2,75,742,53,785,48C829.1,43,873,53,916,69.3C960,85,1004,107,1047,96C1090.9,85,1135,43,1178,53.3C1221.8,64,1265,128,1309,149.3C1352.7,171,1396,149,1418,138.7L1440,128L1440,0L1418.2,0C1396.4,0,1353,0,1309,0C1265.5,0,1222,0,1178,0C1134.5,0,1091,0,1047,0C1003.6,0,960,0,916,0C872.7,0,829,0,785,0C741.8,0,698,0,655,0C610.9,0,567,0,524,0C480,0,436,0,393,0C349.1,0,305,0,262,0C218.2,0,175,0,131,0C87.3,0,44,0,22,0L0,0Z"></path></svg>